<svg width="53" height="16" viewBox="0 0 53 16" fill="none" xmlns="http://www.w3.org/2000/svg">
<path d="M25.4026 7.85121C31.2486 6.17486 36.6078 5.58409 40.5514 6.05464C44.4873 6.41864 47.0077 7.84396 47 7.73769C47.0077 7.84396 44.536 7.09867 40.6489 7.41469C36.7541 7.62417 31.4436 8.89524 25.5976 10.5713C19.7514 12.2477 14.3924 12.8384 10.4486 12.3679C6.51274 12.0039 3.99232 10.5786 4.00002 10.6848C3.99232 10.5786 6.46399 11.3239 10.3514 11.0078C14.2462 10.7984 19.5564 9.52757 25.4029 7.85093L25.4026 7.85121Z" fill="url(#paint0_linear_2032_3700)"/>
<path d="M23.8634 4.52492C30.3634 2.36519 36.3409 1.66609 40.7581 2.37794C45.1647 2.94524 48.0106 4.92323 48 4.77895C48.0106 4.92296 45.2329 3.86701 40.8947 4.22174C36.5457 4.43192 30.6365 6.05279 24.1366 8.21252C17.6366 10.3723 11.6591 11.0714 7.24161 10.3595C2.83534 9.79247 -0.0106485 7.81421 3.06835e-05 7.9585C-0.0106485 7.81448 2.76705 8.8707 7.10531 8.5157C11.4543 8.30579 17.3635 6.68466 23.8634 4.52466V4.52492Z" fill="url(#paint1_linear_2032_3700)"/>
<path d="M50.5121 0.382812C49.8034 0.382812 49.2266 0.932235 49.2266 1.6081C49.2266 2.28396 49.803 2.83338 50.5121 2.83338C51.2212 2.83338 51.7977 2.28396 51.7977 1.6081C51.7977 0.932235 51.2212 0.382812 50.5121 0.382812ZM50.5121 2.71046C49.8743 2.71046 49.3552 2.21563 49.3552 1.60774C49.3552 0.999856 49.8743 0.505024 50.5121 0.505024C51.1499 0.505024 51.6691 0.999856 51.6691 1.60774C51.6691 2.21563 51.1499 2.71046 50.5121 2.71046Z" fill="white"/>
<path d="M50.3205 1.24219H49.8065C49.771 1.24219 49.7422 1.26966 49.7422 1.30347C49.7422 1.33728 49.771 1.36475 49.8065 1.36475H49.9994V1.91593C49.9994 1.94975 50.0282 1.97722 50.0637 1.97722C50.0991 1.97722 50.128 1.94975 50.128 1.91593V1.36475H50.3208C50.3563 1.36475 50.3851 1.33728 50.3851 1.30347C50.3851 1.26966 50.3563 1.24219 50.3208 1.24219H50.3205Z" fill="white"/>
<path d="M51.119 1.24686C51.095 1.23735 51.0673 1.24263 51.0488 1.26024L50.8371 1.46205L50.6254 1.26024C50.6069 1.24263 50.5796 1.23735 50.5552 1.24686C50.5311 1.25637 50.5156 1.27856 50.5156 1.30356V1.91603C50.5156 1.94984 50.5444 1.97731 50.5799 1.97731C50.6154 1.97731 50.6442 1.94984 50.6442 1.91603V1.45148L50.7917 1.59201C50.8168 1.61596 50.8574 1.61596 50.8826 1.59201L51.03 1.45148V1.91603C51.03 1.94984 51.0588 1.97731 51.0943 1.97731C51.1298 1.97731 51.1586 1.94984 51.1586 1.91603V1.30356C51.1586 1.27891 51.1431 1.25637 51.119 1.24686Z" fill="white"/>
<path d="M3.69229 4.80539H3.99492C4.38513 5.61156 4.93608 6.88052 5.6485 8.6112C5.97663 9.4061 6.20277 9.88826 6.32693 10.0573C6.45109 10.2264 6.64804 10.3296 6.91705 10.3662C7.00573 10.3775 7.05007 10.4141 7.05007 10.4764C7.05007 10.5638 6.99243 10.6074 6.87714 10.6074C6.81506 10.6074 6.65358 10.5976 6.39344 10.5779C6.08601 10.5525 5.82698 10.5398 5.61709 10.5398C5.40721 10.5398 5.1467 10.5511 4.81857 10.5736C4.57321 10.5905 4.41173 10.599 4.33488 10.599C4.19889 10.599 4.1309 10.5581 4.1309 10.4764C4.1309 10.4144 4.1782 10.3792 4.2728 10.3704C4.6364 10.3394 4.81857 10.2031 4.81857 9.96151C4.81857 9.84775 4.76536 9.63996 4.65931 9.33778C4.55326 9.03559 4.43945 8.76088 4.31862 8.51364C4.12573 8.51082 3.97608 8.50942 3.86929 8.50942C3.27326 8.50942 2.80915 8.51082 2.47695 8.51364C2.22199 9.17894 2.09451 9.61988 2.09451 9.83578C2.09451 9.99004 2.15806 10.1101 2.28518 10.1954C2.41229 10.281 2.54975 10.3306 2.69792 10.3447C2.81026 10.356 2.86642 10.3996 2.86642 10.4757C2.86642 10.5518 2.80582 10.5898 2.68462 10.5898C2.63732 10.5898 2.51317 10.5828 2.31178 10.5687C2.05127 10.549 1.86208 10.5391 1.74384 10.5391C1.5103 10.5391 1.28822 10.5532 1.07834 10.5814C1.02513 10.5898 0.980788 10.5941 0.945315 10.5941C0.835938 10.5941 0.78125 10.5518 0.78125 10.4673C0.78125 10.4053 0.816724 10.3644 0.887671 10.3447C1.06504 10.2968 1.20398 10.238 1.30485 10.1679C1.40536 10.0978 1.514 9.96327 1.63113 9.76393C1.7479 9.56459 1.88795 9.24515 2.05127 8.80526C2.41894 7.81876 2.96619 6.48501 3.69266 4.80469L3.69229 4.80539ZM3.37931 6.28108L2.60887 8.17131L4.17783 8.15018C4.09506 7.929 3.96795 7.62576 3.79649 7.24011C3.61026 6.82311 3.47095 6.50367 3.37931 6.28108Z" fill="white"/>
<path d="M12.3476 10.5922C11.6082 10.5556 10.4575 10.5373 8.89561 10.5373C8.35131 10.5373 7.909 10.5528 7.56905 10.5837C7.48628 10.5894 7.42568 10.5922 7.38725 10.5922C7.27492 10.5922 7.21875 10.5499 7.21875 10.4654C7.21875 10.426 7.23353 10.3985 7.26309 10.383C7.29265 10.3675 7.36508 10.3513 7.48037 10.3344C7.66365 10.309 7.80443 10.2576 7.90198 10.1798C7.99953 10.1023 8.06827 9.98642 8.10817 9.83252C8.14808 9.67861 8.17099 9.28626 8.1769 8.65513C8.18281 8.024 8.18577 7.27347 8.18577 6.40391C8.18577 6.05664 8.15917 5.80447 8.10596 5.64775C8.05275 5.49102 7.97663 5.37656 7.8776 5.30471C7.77857 5.23251 7.63852 5.19236 7.4582 5.18391C7.33108 5.17827 7.26753 5.13319 7.26753 5.04867C7.26753 4.96414 7.33995 4.92188 7.4848 4.92188L8.95769 4.96414C9.18531 4.96414 9.50346 4.95322 9.91178 4.93138C10.0596 4.92504 10.1601 4.92188 10.2133 4.92188C10.3375 4.92188 10.3995 4.96273 10.3995 5.04444C10.3995 5.08952 10.3796 5.12122 10.3397 5.13953C10.2998 5.15784 10.2 5.17827 10.0404 5.20081C9.84194 5.22617 9.70226 5.27442 9.62097 5.34486C9.53967 5.4153 9.48499 5.53821 9.4569 5.71325C9.42882 5.8883 9.41478 6.28099 9.41478 6.89064V9.46201C9.41773 9.85717 9.45469 10.0924 9.52563 10.1671C9.59658 10.2418 9.73145 10.2791 9.92951 10.2791C10.4147 10.2791 10.7757 10.2432 11.0126 10.1713C11.2494 10.0995 11.4748 9.96917 11.6895 9.78004C11.9042 9.59126 12.134 9.27394 12.3798 8.82841C12.43 8.73825 12.4814 8.69317 12.5342 8.69317C12.6137 8.69317 12.6532 8.73402 12.6532 8.81573C12.6532 8.99887 12.5512 9.59091 12.3472 10.5918L12.3476 10.5922Z" fill="white"/>
<path d="M18.0273 10.5922C17.2879 10.5556 16.1372 10.5373 14.5753 10.5373C14.031 10.5373 13.5887 10.5528 13.2487 10.5837C13.166 10.5894 13.1054 10.5922 13.0669 10.5922C12.9546 10.5922 12.8984 10.5499 12.8984 10.4654C12.8984 10.426 12.9132 10.3985 12.9428 10.383C12.9723 10.3675 13.0448 10.3513 13.1601 10.3344C13.3433 10.309 13.4841 10.2576 13.5817 10.1798C13.6792 10.1023 13.748 9.98642 13.7879 9.83252C13.8278 9.67861 13.8507 9.28626 13.8566 8.65513C13.8625 8.024 13.8655 7.27347 13.8655 6.40391C13.8655 6.05664 13.8389 5.80447 13.7856 5.64775C13.7324 5.49102 13.6563 5.37656 13.5573 5.30471C13.4583 5.23251 13.3182 5.19236 13.1379 5.18391C13.0108 5.17827 12.9472 5.13319 12.9472 5.04867C12.9472 4.96414 13.0196 4.92188 13.1645 4.92188L14.6374 4.96414C14.865 4.96414 15.1831 4.95322 15.5915 4.93138C15.7393 4.92504 15.8398 4.92188 15.893 4.92188C16.0171 4.92188 16.0792 4.96273 16.0792 5.04444C16.0792 5.08952 16.0593 5.12122 16.0194 5.13953C15.9795 5.15784 15.8797 5.17827 15.7201 5.20081C15.5216 5.22617 15.3819 5.27442 15.3007 5.34486C15.2194 5.4153 15.1647 5.53821 15.1366 5.71325C15.1085 5.8883 15.0945 6.28099 15.0945 6.89064V9.46201C15.0974 9.85717 15.1344 10.0924 15.2053 10.1671C15.2763 10.2418 15.4111 10.2791 15.6092 10.2791C16.0944 10.2791 16.4554 10.2432 16.6922 10.1713C16.9291 10.0995 17.1545 9.96917 17.3692 9.78004C17.5839 9.59126 17.8137 9.27394 18.0595 8.82841C18.1097 8.73825 18.1611 8.69317 18.2139 8.69317C18.2934 8.69317 18.3329 8.73402 18.3329 8.81573C18.3329 8.99887 18.2309 9.59091 18.0269 10.5918L18.0273 10.5922Z" fill="white"/>
<path d="M18.3935 4.91829C19.9296 4.95773 21.0662 4.97746 21.8034 4.97746C22.3628 4.97746 22.9784 4.96196 23.6506 4.93097C23.8904 4.9197 24.087 4.91406 24.2411 4.91406C24.3002 4.91406 24.3992 4.91547 24.5385 4.91829C24.5592 5.03381 24.5858 5.27224 24.6183 5.63289L24.6848 6.301C24.6848 6.41089 24.6364 6.46583 24.5393 6.46583C24.4657 6.46583 24.3948 6.39821 24.3268 6.26297C24.2144 6.03474 24.07 5.83857 23.8941 5.67515C23.7178 5.51174 23.5138 5.40326 23.2814 5.34973C23.049 5.29619 22.6651 5.26943 22.1293 5.26943C22.082 5.70086 22.0583 6.24078 22.0583 6.88917C22.0583 7.53756 22.0716 8.19088 22.0982 8.80686C22.1248 9.42285 22.1574 9.79441 22.1958 9.9212C22.2342 10.048 22.2993 10.141 22.3909 10.2001C22.4825 10.2593 22.6983 10.3002 23.0386 10.3227C23.1539 10.3312 23.2116 10.3706 23.2116 10.441C23.2116 10.5199 23.1613 10.5594 23.0605 10.5594L22.9363 10.5552L22.0166 10.534C21.2997 10.534 20.8644 10.5368 20.7103 10.5425L20.1505 10.5636C20.1062 10.5636 20.0142 10.5608 19.8752 10.5552C19.8072 10.5411 19.7729 10.5058 19.7729 10.4491C19.7729 10.3674 19.829 10.3266 19.9414 10.3266C20.2045 10.3266 20.4029 10.2745 20.5359 10.1702C20.669 10.066 20.751 9.90007 20.782 9.67326C20.8131 9.44645 20.8286 8.95373 20.8286 8.1951C20.8286 6.99694 20.7902 6.02136 20.7133 5.26872C20.2252 5.26872 19.8726 5.28774 19.655 5.32578C19.4377 5.36381 19.2282 5.46806 19.0272 5.63888C18.8262 5.80934 18.6617 6.03017 18.5346 6.30065C18.4844 6.40772 18.4267 6.46125 18.3617 6.46125C18.2612 6.46125 18.2109 6.41899 18.2109 6.33446C18.2109 6.3091 18.2294 6.12385 18.2664 5.77835C18.3033 5.43284 18.3454 5.14616 18.3927 4.91794L18.3935 4.91829Z" fill="white"/>
<path d="M28.3346 7.70283C28.7329 7.75672 29.0611 7.87188 29.319 8.04868C29.5773 8.22549 29.7713 8.57698 29.901 9.1028C30.0248 9.59482 30.1563 9.91954 30.2956 10.0766C30.4346 10.2337 30.6297 10.3189 30.8813 10.3334C31.0202 10.3418 31.0897 10.3841 31.0897 10.4602C31.0897 10.5419 30.9774 10.5827 30.7527 10.5827L29.0444 10.5405C28.8671 10.3711 28.7459 10.0689 28.6805 9.63426C28.5977 9.07815 28.512 8.68545 28.4233 8.45688C28.3346 8.2283 28.2016 8.06453 28.0238 7.96557C27.8465 7.8666 27.6407 7.81729 27.4071 7.81729C27.3391 7.81729 27.246 7.82152 27.1274 7.82997C27.1274 8.8221 27.1311 9.43351 27.1385 9.66314C27.1459 9.89312 27.1939 10.058 27.2826 10.158C27.3713 10.258 27.5398 10.3136 27.7885 10.3249C27.9215 10.3334 27.988 10.3756 27.988 10.4517C27.988 10.5278 27.9304 10.5658 27.8151 10.5658L26.453 10.532C26.2694 10.532 26.0344 10.539 25.7476 10.5531C25.4842 10.5672 25.3171 10.5743 25.2462 10.5743C25.125 10.5743 25.0644 10.5334 25.0644 10.4517C25.0644 10.37 25.1176 10.3334 25.224 10.3334C25.3896 10.3334 25.5426 10.2939 25.6833 10.215C25.8238 10.1361 25.894 9.80226 25.894 9.21269L25.8895 8.42624L25.894 6.90793C25.894 6.1243 25.8577 5.64566 25.7853 5.47239C25.7129 5.29911 25.5185 5.20965 25.2019 5.20401C25.0777 5.2012 25.0156 5.16034 25.0156 5.08145C25.0156 5.00256 25.0984 4.95889 25.2639 4.95889C26.0979 4.95889 26.8048 4.94198 27.3846 4.90817C27.6418 4.89127 27.8742 4.88281 28.0811 4.88281C28.7525 4.88281 29.2791 5.01031 29.6604 5.26565C30.0421 5.52099 30.2328 5.85416 30.2328 6.26588C30.2328 6.54235 30.1426 6.7903 29.962 7.01006C29.7816 7.22983 29.5562 7.3936 29.2854 7.50067C29.0145 7.60774 28.6975 7.67536 28.3339 7.70353L28.3346 7.70283ZM27.1278 7.52497C27.2046 7.52779 27.2623 7.5292 27.3007 7.5292C27.5579 7.5292 27.8177 7.48341 28.0793 7.39184C28.3409 7.30027 28.5256 7.15376 28.6339 6.95195C28.7418 6.7505 28.7958 6.53531 28.7958 6.30709C28.7958 5.95454 28.6864 5.67983 28.4673 5.48225C28.2485 5.28502 27.9658 5.1864 27.62 5.1864C27.4751 5.1864 27.3107 5.21176 27.1274 5.26248V7.52497H27.1278Z" fill="white"/>
<path d="M31.0567 4.91541L32.4853 4.95767C32.6213 4.95767 32.7765 4.95063 32.9513 4.93654C33.2291 4.91682 33.4483 4.90695 33.6079 4.90695C33.7586 4.90695 33.834 4.9464 33.834 5.02529C33.834 5.10418 33.7749 5.14222 33.6567 5.14786C33.4438 5.15913 33.2846 5.23168 33.1796 5.36551C33.0747 5.49934 33.007 5.77441 32.9779 6.19C32.9483 6.60594 32.9335 7.06309 32.9335 7.56214C32.9335 8.36268 32.9734 8.90048 33.0532 9.17555C33.1331 9.45026 33.3045 9.66967 33.568 9.83309C33.8311 9.99651 34.1803 10.0782 34.6152 10.0782C35.0501 10.0782 35.3886 9.98876 35.6136 9.80985C35.8383 9.63093 35.9931 9.34988 36.0773 8.96705C36.1616 8.58386 36.2037 7.87278 36.2037 6.8331C36.2037 6.21923 36.1535 5.79519 36.053 5.56133C35.9525 5.32747 35.7806 5.19928 35.5382 5.17673C35.3638 5.15983 35.2766 5.11052 35.2766 5.02881C35.2766 4.9471 35.3476 4.90625 35.4895 4.90625C35.5574 4.90625 35.6713 4.914 35.8309 4.92914C35.9964 4.94182 36.1697 4.94851 36.3501 4.94851C36.5156 4.94851 36.7004 4.94006 36.9047 4.92316C37.0584 4.91188 37.1652 4.90625 37.2243 4.90625C37.3721 4.90625 37.4464 4.9471 37.4464 5.02881C37.4464 5.09362 37.3932 5.13165 37.2868 5.14292C37.139 5.15701 37.0052 5.22252 36.8851 5.33945C36.7654 5.45638 36.6885 5.64973 36.6545 5.91881C36.6205 6.18824 36.6035 6.87959 36.6035 7.99288C36.6035 8.72579 36.5267 9.25655 36.373 9.58479C36.2192 9.91339 35.9506 10.1684 35.5678 10.3501C35.1846 10.5318 34.7079 10.6227 34.137 10.6227C33.6962 10.6227 33.3134 10.5854 32.9878 10.5107C32.6623 10.436 32.4044 10.3212 32.2137 10.1663C32.023 10.0113 31.8852 9.83239 31.801 9.62952C31.7167 9.42666 31.6746 9.128 31.6746 8.73354L31.6923 6.48126C31.6923 6.1657 31.6738 5.90648 31.6369 5.70362C31.5999 5.50075 31.5416 5.36622 31.4617 5.3C31.3819 5.23379 31.2607 5.19223 31.0978 5.17533C30.9943 5.16406 30.93 5.14926 30.9049 5.13095C30.8798 5.11264 30.8672 5.08235 30.8672 5.04008C30.8672 4.95556 30.9307 4.91329 31.0579 4.91329L31.0567 4.91541Z" fill="white"/>
<path d="M41.2432 5.14417C41.2817 5.1079 41.3201 5.05225 41.3585 4.97723C41.4029 4.88813 41.4531 4.84375 41.5093 4.84375C41.5891 4.84375 41.6379 4.90574 41.6556 5.02971L41.8108 6.18843L41.8285 6.3279C41.8285 6.40397 41.7886 6.44201 41.7088 6.44201C41.6497 6.44201 41.6068 6.42862 41.5802 6.40186C41.5536 6.37509 41.5034 6.2881 41.4295 6.14088C41.3024 5.88906 41.0925 5.66295 40.7994 5.46185C40.5068 5.2611 40.2123 5.16072 39.9167 5.16072C39.6211 5.16072 39.3909 5.23926 39.2002 5.39599C39.0095 5.55272 38.9142 5.74995 38.9142 5.98732C38.9142 6.1768 39.0029 6.34762 39.1806 6.50047C39.358 6.65297 39.6998 6.79737 40.2056 6.93261C40.9982 7.14745 41.5352 7.4123 41.8164 7.72822C42.0942 8.04378 42.2335 8.39492 42.2335 8.78093C42.2335 9.16693 42.1315 9.5068 41.9276 9.77447C41.7236 10.0421 41.4794 10.2527 41.1956 10.4063C40.9118 10.5599 40.5478 10.6366 40.104 10.6366C39.8524 10.6366 39.5922 10.6021 39.3232 10.5331C39.0542 10.4641 38.776 10.3605 38.4892 10.2221C38.4301 10.2869 38.3799 10.3714 38.3385 10.476C38.2912 10.5916 38.2321 10.6493 38.1611 10.6493C38.0902 10.6493 38.0429 10.5732 38.0281 10.4211L37.8995 8.88588C37.8936 8.81826 37.8906 8.776 37.8906 8.75909C37.8906 8.67738 37.935 8.63653 38.0236 8.63653C38.0887 8.63653 38.1508 8.70697 38.2099 8.8482C38.3902 9.27083 38.6359 9.62337 38.9463 9.90548C39.2538 10.1876 39.6133 10.3285 40.0246 10.3285C40.3738 10.3285 40.6553 10.2299 40.8697 10.0323C41.084 9.83504 41.1915 9.6107 41.1915 9.35993C41.1915 9.10917 41.0925 8.8975 40.894 8.72563C40.696 8.55376 40.3394 8.38893 39.8247 8.2308C39.3247 8.07583 38.953 7.92791 38.7087 7.78668C38.4649 7.64581 38.2694 7.4521 38.123 7.20521C37.9767 6.95868 37.9036 6.70827 37.9036 6.45469C37.9036 6.01198 38.0831 5.63583 38.4427 5.32555C38.8018 5.01562 39.2907 4.8603 39.9089 4.8603C40.2433 4.8603 40.6882 4.95469 41.2443 5.14382L41.2432 5.14417Z" fill="white"/>
<path d="M42.87 4.91829C44.4061 4.95773 45.5427 4.97746 46.2799 4.97746C46.8394 4.97746 47.455 4.96196 48.1271 4.93097C48.3669 4.9197 48.5635 4.91406 48.7176 4.91406C48.7767 4.91406 48.8758 4.91547 49.0151 4.91829C49.0358 5.03381 49.0624 5.27224 49.0949 5.63289L49.1614 6.301C49.1614 6.41089 49.113 6.46583 49.0158 6.46583C48.9423 6.46583 48.8713 6.39821 48.8033 6.26297C48.691 6.03474 48.5465 5.83857 48.3706 5.67515C48.1944 5.51174 47.9904 5.40326 47.758 5.34973C47.5256 5.29619 47.1416 5.26943 46.6058 5.26943C46.5585 5.70086 46.5349 6.24078 46.5349 6.88917C46.5349 7.53756 46.5482 8.19088 46.5748 8.80686C46.6014 9.42285 46.6339 9.79441 46.6723 9.9212C46.7108 10.048 46.7758 10.141 46.8675 10.2001C46.9591 10.2593 47.1749 10.3002 47.5152 10.3227C47.6305 10.3312 47.6881 10.3706 47.6881 10.441C47.6881 10.5199 47.6379 10.5594 47.537 10.5594L47.4129 10.5552L46.4931 10.534C45.7763 10.534 45.341 10.5368 45.1869 10.5425L44.6271 10.5636C44.5827 10.5636 44.4907 10.5608 44.3518 10.5552C44.2838 10.5411 44.2494 10.5058 44.2494 10.4491C44.2494 10.3674 44.3056 10.3266 44.4179 10.3266C44.681 10.3266 44.8795 10.2745 45.0125 10.1702C45.1455 10.066 45.2275 9.90007 45.2586 9.67326C45.2896 9.44645 45.3051 8.95373 45.3051 8.1951C45.3051 6.99694 45.2667 6.02136 45.1899 5.26872C44.7017 5.26872 44.3492 5.28774 44.1316 5.32578C43.9143 5.36381 43.7048 5.46806 43.5038 5.63888C43.3027 5.80934 43.1383 6.03017 43.0112 6.30065C42.9609 6.40772 42.9033 6.46125 42.8383 6.46125C42.7378 6.46125 42.6875 6.41899 42.6875 6.33446C42.6875 6.3091 42.706 6.12385 42.7429 5.77835C42.7799 5.43284 42.822 5.14616 42.8693 4.91794L42.87 4.91829Z" fill="white"/>
<path d="M12.6395 13.5544L12.4325 14.0908H12.3047L12.9026 12.5391H13.0515L13.6748 14.0908H13.5378L13.326 13.5544H12.6398H12.6395ZM13.2835 13.4435C13.1021 12.9825 13.009 12.7606 12.9765 12.6563H12.9742C12.9347 12.774 12.8301 13.0487 12.6834 13.4435H13.2835Z" fill="white"/>
<path d="M14.6929 12.5391V13.4791C14.6929 13.8915 14.9372 13.9978 15.1674 13.9978C15.4397 13.9978 15.6419 13.8894 15.6419 13.4791V12.5391H15.7697V13.4724C15.7697 13.9581 15.5 14.1088 15.1626 14.1088C14.8252 14.1088 14.5625 13.9426 14.5625 13.4925V12.5391H14.6929Z" fill="white"/>
<path d="M16.3348 13.5544L16.1279 14.0908H16L16.5979 12.5391H16.7468L17.3702 14.0908H17.2331L17.0213 13.5544H16.3352H16.3348ZM16.9792 13.4435C16.7978 12.9825 16.7047 12.7606 16.6721 12.6563H16.6699C16.6304 12.774 16.5258 13.0487 16.3791 13.4435H16.9792Z" fill="white"/>
<path d="M17.6562 12.5391H18.2379C18.5357 12.5391 18.7404 12.6965 18.7404 12.9712C18.7404 13.2459 18.5379 13.4146 18.2216 13.4146H17.7845V14.0908H17.6566V12.5391H17.6562ZM17.7841 13.304H18.2331C18.4958 13.304 18.6052 13.1709 18.6052 12.9758C18.6052 12.7673 18.4611 12.65 18.2423 12.65H17.7841V13.304Z" fill="white"/>
<path d="M20.9398 14.0899H20.8353C20.826 14.0723 20.8212 13.9924 20.819 13.8416C20.761 13.948 20.6328 14.1075 20.2932 14.1075C19.8258 14.1075 19.5859 13.7684 19.5859 13.3271C19.5859 12.8636 19.8416 12.5156 20.3187 12.5156C20.6701 12.5156 20.9025 12.6907 20.9539 12.9766H20.8282C20.7584 12.7572 20.598 12.6266 20.3143 12.6266C19.907 12.6266 19.7212 12.928 19.7212 13.3204C19.7212 13.675 19.9004 13.9966 20.298 13.9966C20.6956 13.9966 20.819 13.7437 20.819 13.4003V13.3827H20.2932V13.2718H20.9398V14.0899Z" fill="white"/>
<path d="M21.3225 13.2814C21.3225 13.0951 21.3203 13.0155 21.3203 12.9799H21.4341C21.4363 13.0155 21.4389 13.0863 21.4389 13.2282C21.5065 13.062 21.6551 12.9623 21.8435 12.9531V13.0729C21.6015 13.0884 21.4389 13.2479 21.4389 13.5117V14.0882H21.3225V13.2814Z" fill="white"/>
<path d="M22.9963 13.5314C22.9963 13.8396 22.8171 14.1147 22.4705 14.1147C22.1564 14.1147 21.9609 13.8685 21.9609 13.5339C21.9609 13.2169 22.1446 12.9531 22.482 12.9531C22.7912 12.9531 22.9959 13.1838 22.9959 13.5318L22.9963 13.5314ZM22.0844 13.5339C22.0844 13.7977 22.2333 14.0104 22.4797 14.0104C22.7262 14.0104 22.8729 13.8132 22.8729 13.5339C22.8729 13.2722 22.7332 13.0574 22.4753 13.0574C22.2174 13.0574 22.0844 13.268 22.0844 13.5339Z" fill="white"/>
<path d="M24.1533 13.7701C24.1533 13.8786 24.1559 14.0519 24.1559 14.0938H24.0443C24.0395 14.0649 24.0373 13.9916 24.0373 13.9008C23.9885 14.0318 23.8699 14.1202 23.6626 14.1202C23.4952 14.1202 23.2812 14.0582 23.2812 13.7187V12.9847H23.3951V13.6919C23.3951 13.8539 23.4486 14.011 23.6788 14.011C23.9394 14.011 24.0373 13.8712 24.0373 13.5542V12.9844H24.1537V13.7691L24.1533 13.7701Z" fill="white"/>
<path d="M24.6502 13.9241V14.5317H24.5338V13.2525C24.5338 13.1616 24.5338 13.0641 24.5312 12.9799H24.6454C24.6502 13.0222 24.6502 13.0884 24.6502 13.1792C24.7223 13.0461 24.8501 12.9531 25.0597 12.9531C25.3342 12.9531 25.5249 13.1725 25.5249 13.505C25.5249 13.904 25.3017 14.1147 25.0201 14.1147C24.8154 14.1147 24.7086 14.028 24.6502 13.9241ZM25.4018 13.5096C25.4018 13.2525 25.2714 13.0595 25.0412 13.0595C24.7596 13.0595 24.6436 13.2282 24.6436 13.5297C24.6436 13.8311 24.7345 14.0108 25.0249 14.0108C25.267 14.0108 25.4018 13.8156 25.4018 13.5096Z" fill="white"/>
<path d="M27.6934 13.6754C27.6165 13.9216 27.4258 14.1075 27.0815 14.1075C26.614 14.1075 26.3672 13.7529 26.3672 13.3162C26.3672 12.8794 26.6092 12.5156 27.0837 12.5156C27.4351 12.5156 27.642 12.7019 27.6956 12.9615H27.57C27.4957 12.7597 27.3582 12.6266 27.077 12.6266C26.6724 12.6266 26.5024 12.9791 26.5024 13.3137C26.5024 13.6483 26.6698 13.9966 27.0863 13.9966C27.3516 13.9966 27.4864 13.8659 27.5677 13.675H27.6934V13.6754Z" fill="white"/>
<path d="M28.9416 13.5314C28.9416 13.8396 28.7624 14.1147 28.4158 14.1147C28.1017 14.1147 27.9062 13.8685 27.9062 13.5339C27.9062 13.2169 28.0899 12.9531 28.4273 12.9531C28.7366 12.9531 28.9413 13.1838 28.9413 13.5318L28.9416 13.5314ZM28.0297 13.5339C28.0297 13.7977 28.1786 14.0104 28.425 14.0104C28.6715 14.0104 28.8182 13.8132 28.8182 13.5339C28.8182 13.2722 28.6785 13.0574 28.4202 13.0574C28.162 13.0574 28.0293 13.268 28.0293 13.5339H28.0297Z" fill="white"/>
<path d="M29.2288 13.2659C29.2288 13.1704 29.2288 13.0665 29.2266 12.9799H29.3404C29.343 13.0176 29.3474 13.113 29.3452 13.1771C29.394 13.0662 29.5011 12.9531 29.694 12.9531C29.8566 12.9531 29.9848 13.0306 30.0314 13.1725C30.0894 13.0574 30.2058 12.9531 30.4105 12.9531C30.5897 12.9531 30.7756 13.0507 30.7756 13.3589V14.0882H30.6592V13.3722C30.6592 13.2236 30.6034 13.062 30.3872 13.062C30.171 13.062 30.0591 13.2349 30.0591 13.4501V14.0886H29.9453V13.3747C29.9453 13.2127 29.8939 13.062 29.68 13.062C29.4542 13.062 29.3452 13.2525 29.3452 13.479V14.0886H29.2288V13.2662V13.2659Z" fill="white"/>
<path d="M31.2752 13.9241V14.5317H31.1588V13.2525C31.1588 13.1616 31.1588 13.0641 31.1562 12.9799H31.2704C31.2752 13.0222 31.2752 13.0884 31.2752 13.1792C31.3473 13.0461 31.4751 12.9531 31.6847 12.9531C31.9592 12.9531 32.1499 13.1725 32.1499 13.505C32.1499 13.904 31.9267 14.1147 31.6451 14.1147C31.4404 14.1147 31.3332 14.028 31.2752 13.9241ZM32.0265 13.5096C32.0265 13.2525 31.896 13.0595 31.6658 13.0595C31.3842 13.0595 31.2678 13.2282 31.2678 13.5297C31.2678 13.8311 31.3587 14.0108 31.6496 14.0108C31.8916 14.0108 32.0265 13.8156 32.0265 13.5096Z" fill="white"/>
<path d="M33.2354 13.8776C33.2354 13.9752 33.2447 14.0527 33.2517 14.0882H33.1401C33.1309 14.0618 33.1238 14.0129 33.119 13.9174C33.0795 13.9995 32.9772 14.1147 32.7377 14.1147C32.468 14.1147 32.3516 13.9484 32.3516 13.7822C32.3516 13.5381 32.5493 13.4275 32.8984 13.4275H33.1194V13.3145C33.1194 13.2035 33.0847 13.0549 32.8194 13.0549C32.5844 13.0549 32.5496 13.1725 32.5241 13.2634H32.4077C32.4218 13.1415 32.5008 12.9531 32.8216 12.9531C33.0869 12.9531 33.2354 13.0595 33.2354 13.3036V13.8776ZM33.1216 13.523H32.8936C32.6354 13.523 32.475 13.5874 32.475 13.778C32.475 13.9178 32.5796 14.0129 32.7425 14.0129C33.0751 14.0129 33.1216 13.8023 33.1216 13.5628V13.5226V13.523Z" fill="white"/>
<path d="M33.6194 13.2592C33.6194 13.1616 33.6194 13.0686 33.6172 12.9799H33.731C33.7358 13.0155 33.738 13.1595 33.7358 13.1905C33.7872 13.0774 33.8825 12.9531 34.1219 12.9531C34.3289 12.9531 34.5125 13.0641 34.5125 13.3701V14.0882H34.3961V13.3877C34.3961 13.1905 34.31 13.0616 34.1075 13.0616C33.8308 13.0616 33.7354 13.281 33.7354 13.5226V14.0879H33.619V13.2588L33.6194 13.2592Z" fill="white"/>
<path d="M34.8544 12.9847C35.0894 13.6187 35.1918 13.8804 35.2313 14.0001H35.2339C35.2805 13.8649 35.3736 13.6078 35.599 12.9847H35.7198L35.2827 14.1575C35.1596 14.4858 35.0758 14.5587 34.8662 14.5587C34.8245 14.5587 34.7964 14.5566 34.7591 14.552V14.441C34.7938 14.4456 34.8263 14.4477 34.8637 14.4477C35.0314 14.4477 35.0846 14.3703 35.1707 14.1417L34.7266 12.9844H34.8544V12.9847Z" fill="white"/>
<defs>
<linearGradient id="paint0_linear_2032_3700" x1="4.00034" y1="10.6846" x2="46.9909" y2="7.6044" gradientUnits="userSpaceOnUse">
<stop stop-color="#00073F"/>
<stop offset="0.22" stop-color="#022B5F"/>
<stop offset="0.75" stop-color="#0881AE"/>
<stop offset="1" stop-color="#0BA4CE"/>
</linearGradient>
<linearGradient id="paint1_linear_2032_3700" x1="0.000301028" y1="7.95827" x2="47.9721" y2="4.40152" gradientUnits="userSpaceOnUse">
<stop stop-color="#00073F"/>
<stop offset="0.22" stop-color="#022B5F"/>
<stop offset="0.75" stop-color="#0881AE"/>
<stop offset="1" stop-color="#0BA4CE"/>
</linearGradient>
</defs>
</svg>
